<?xml version="1.0" encoding="UTF-8" standalone="no"?>
<!-- Created with Inkscape (http://www.inkscape.org/) -->

<svg
   width="512mm"
   height="512mm"
   viewBox="0 0 512 512"
   version="1.1"
   id="svg1"
   inkscape:version="1.4.2 (ebf0e940d0, 2025-05-08)"
   sodipodi:docname="MAKERs-Team-Icon.svg"
   inkscape:export-filename="MAKERs-Team-Icon-Transparent.png"
   inkscape:export-xdpi="50.799999"
   inkscape:export-ydpi="50.799999"
   xmlns:inkscape="http://www.inkscape.org/namespaces/inkscape"
   xmlns:sodipodi="http://sodipodi.sourceforge.net/DTD/sodipodi-0.dtd"
   xmlns="http://www.w3.org/2000/svg"
   xmlns:svg="http://www.w3.org/2000/svg">
  <sodipodi:namedview
     id="namedview1"
     pagecolor="#505050"
     bordercolor="#ffffff"
     borderopacity="1"
     inkscape:showpageshadow="0"
     inkscape:pageopacity="0"
     inkscape:pagecheckerboard="1"
     inkscape:deskcolor="#505050"
     inkscape:document-units="mm"
     inkscape:zoom="0.1104047"
     inkscape:cx="1218.2452"
     inkscape:cy="1566.9623"
     inkscape:window-width="1920"
     inkscape:window-height="1047"
     inkscape:window-x="0"
     inkscape:window-y="0"
     inkscape:window-maximized="1"
     inkscape:current-layer="layer2" />
  <defs
     id="defs1">
    <inkscape:path-effect
       effect="fillet_chamfer"
       id="path-effect15-0-1-4-2-7"
       is_visible="true"
       lpeversion="1"
       nodesatellites_param="F,0,0,1,0,10,0,1 @ F,0,0,1,0,10,0,1 @ F,0,0,1,0,10,0,1 @ F,0,0,1,0,10,0,1 @ F,0,0,1,0,10,0,1"
       radius="10"
       unit="px"
       method="auto"
       mode="F"
       chamfer_steps="1"
       flexible="false"
       use_knot_distance="true"
       apply_no_radius="true"
       apply_with_radius="true"
       only_selected="false"
       hide_knots="false" />
    <inkscape:path-effect
       effect="fillet_chamfer"
       id="path-effect15-8-9-0-8-9-5"
       is_visible="true"
       lpeversion="1"
       nodesatellites_param="F,0,0,1,0,10,0,1 @ F,0,0,1,0,10,0,1 @ F,0,0,1,0,10,0,1 @ F,0,0,1,0,10,0,1 @ F,0,0,1,0,10,0,1"
       radius="10"
       unit="px"
       method="auto"
       mode="F"
       chamfer_steps="1"
       flexible="false"
       use_knot_distance="true"
       apply_no_radius="true"
       apply_with_radius="true"
       only_selected="false"
       hide_knots="false" />
    <inkscape:path-effect
       effect="fillet_chamfer"
       id="path-effect15-8-0-9-0-4-0-3"
       is_visible="true"
       lpeversion="1"
       nodesatellites_param="F,0,0,1,0,10,0,1 @ F,0,0,1,0,10,0,1 @ F,0,0,1,0,10,0,1 @ F,0,0,1,0,10,0,1 @ F,0,0,1,0,10,0,1"
       radius="10"
       unit="px"
       method="auto"
       mode="F"
       chamfer_steps="1"
       flexible="false"
       use_knot_distance="true"
       apply_no_radius="true"
       apply_with_radius="true"
       only_selected="false"
       hide_knots="false" />
    <inkscape:path-effect
       effect="fillet_chamfer"
       id="path-effect15-0-1-4-2-1-5"
       is_visible="true"
       lpeversion="1"
       nodesatellites_param="F,0,0,1,0,10,0,1 @ F,0,0,1,0,10,0,1 @ F,0,0,1,0,10,0,1 @ F,0,0,1,0,10,0,1 @ F,0,0,1,0,10,0,1"
       radius="10"
       unit="px"
       method="auto"
       mode="F"
       chamfer_steps="1"
       flexible="false"
       use_knot_distance="true"
       apply_no_radius="true"
       apply_with_radius="true"
       only_selected="false"
       hide_knots="false" />
    <inkscape:path-effect
       effect="fillet_chamfer"
       id="path-effect15-8-9-0-8-9-8-6"
       is_visible="true"
       lpeversion="1"
       nodesatellites_param="F,0,0,1,0,10,0,1 @ F,0,0,1,0,10,0,1 @ F,0,0,1,0,10,0,1 @ F,0,0,1,0,10,0,1 @ F,0,0,1,0,10,0,1"
       radius="10"
       unit="px"
       method="auto"
       mode="F"
       chamfer_steps="1"
       flexible="false"
       use_knot_distance="true"
       apply_no_radius="true"
       apply_with_radius="true"
       only_selected="false"
       hide_knots="false" />
    <inkscape:path-effect
       effect="fillet_chamfer"
       id="path-effect15-8-0-9-0-4-0-8-2"
       is_visible="true"
       lpeversion="1"
       nodesatellites_param="F,0,0,1,0,10,0,1 @ F,0,0,1,0,10,0,1 @ F,0,0,1,0,10,0,1 @ F,0,0,1,0,10,0,1 @ F,0,0,1,0,10,0,1"
       radius="10"
       unit="px"
       method="auto"
       mode="F"
       chamfer_steps="1"
       flexible="false"
       use_knot_distance="true"
       apply_no_radius="true"
       apply_with_radius="true"
       only_selected="false"
       hide_knots="false" />
    <inkscape:path-effect
       effect="fillet_chamfer"
       id="path-effect15-0-1-4-2-2-91"
       is_visible="true"
       lpeversion="1"
       nodesatellites_param="F,0,0,1,0,10,0,1 @ F,0,0,1,0,10,0,1 @ F,0,0,1,0,10,0,1 @ F,0,0,1,0,10,0,1 @ F,0,0,1,0,10,0,1"
       radius="10"
       unit="px"
       method="auto"
       mode="F"
       chamfer_steps="1"
       flexible="false"
       use_knot_distance="true"
       apply_no_radius="true"
       apply_with_radius="true"
       only_selected="false"
       hide_knots="false" />
    <inkscape:path-effect
       effect="fillet_chamfer"
       id="path-effect15-8-9-0-8-9-1-27"
       is_visible="true"
       lpeversion="1"
       nodesatellites_param="F,0,0,1,0,10,0,1 @ F,0,0,1,0,10,0,1 @ F,0,0,1,0,10,0,1 @ F,0,0,1,0,10,0,1 @ F,0,0,1,0,10,0,1"
       radius="10"
       unit="px"
       method="auto"
       mode="F"
       chamfer_steps="1"
       flexible="false"
       use_knot_distance="true"
       apply_no_radius="true"
       apply_with_radius="true"
       only_selected="false"
       hide_knots="false" />
    <inkscape:path-effect
       effect="fillet_chamfer"
       id="path-effect15-8-0-9-0-4-0-7-0"
       is_visible="true"
       lpeversion="1"
       nodesatellites_param="F,0,0,1,0,10,0,1 @ F,0,0,1,0,10,0,1 @ F,0,0,1,0,10,0,1 @ F,0,0,1,0,10,0,1 @ F,0,0,1,0,10,0,1"
       radius="10"
       unit="px"
       method="auto"
       mode="F"
       chamfer_steps="1"
       flexible="false"
       use_knot_distance="true"
       apply_no_radius="true"
       apply_with_radius="true"
       only_selected="false"
       hide_knots="false" />
    <inkscape:path-effect
       effect="fillet_chamfer"
       id="path-effect15-0-1-4-2-2-9-9"
       is_visible="true"
       lpeversion="1"
       nodesatellites_param="F,0,0,1,0,10,0,1 @ F,0,0,1,0,10,0,1 @ F,0,0,1,0,10,0,1 @ F,0,0,1,0,10,0,1 @ F,0,0,1,0,10,0,1"
       radius="10"
       unit="px"
       method="auto"
       mode="F"
       chamfer_steps="1"
       flexible="false"
       use_knot_distance="true"
       apply_no_radius="true"
       apply_with_radius="true"
       only_selected="false"
       hide_knots="false" />
    <inkscape:path-effect
       effect="fillet_chamfer"
       id="path-effect15-8-9-0-8-9-1-2-3"
       is_visible="true"
       lpeversion="1"
       nodesatellites_param="F,0,0,1,0,10,0,1 @ F,0,0,1,0,10,0,1 @ F,0,0,1,0,10,0,1 @ F,0,0,1,0,10,0,1 @ F,0,0,1,0,10,0,1"
       radius="10"
       unit="px"
       method="auto"
       mode="F"
       chamfer_steps="1"
       flexible="false"
       use_knot_distance="true"
       apply_no_radius="true"
       apply_with_radius="true"
       only_selected="false"
       hide_knots="false" />
    <inkscape:path-effect
       effect="fillet_chamfer"
       id="path-effect15-8-0-9-0-4-0-7-3-6"
       is_visible="true"
       lpeversion="1"
       nodesatellites_param="F,0,0,1,0,10,0,1 @ F,0,0,1,0,10,0,1 @ F,0,0,1,0,10,0,1 @ F,0,0,1,0,10,0,1 @ F,0,0,1,0,10,0,1"
       radius="10"
       unit="px"
       method="auto"
       mode="F"
       chamfer_steps="1"
       flexible="false"
       use_knot_distance="true"
       apply_no_radius="true"
       apply_with_radius="true"
       only_selected="false"
       hide_knots="false" />
    <inkscape:path-effect
       effect="fillet_chamfer"
       id="path-effect15-0-1-4-2-1-8-0"
       is_visible="true"
       lpeversion="1"
       nodesatellites_param="F,0,0,1,0,10,0,1 @ F,0,0,1,0,10,0,1 @ F,0,0,1,0,10,0,1 @ F,0,0,1,0,10,0,1 @ F,0,0,1,0,10,0,1"
       radius="10"
       unit="px"
       method="auto"
       mode="F"
       chamfer_steps="1"
       flexible="false"
       use_knot_distance="true"
       apply_no_radius="true"
       apply_with_radius="true"
       only_selected="false"
       hide_knots="false" />
    <inkscape:path-effect
       effect="fillet_chamfer"
       id="path-effect15-8-9-0-8-9-8-9-6"
       is_visible="true"
       lpeversion="1"
       nodesatellites_param="F,0,0,1,0,10,0,1 @ F,0,0,1,0,10,0,1 @ F,0,0,1,0,10,0,1 @ F,0,0,1,0,10,0,1 @ F,0,0,1,0,10,0,1"
       radius="10"
       unit="px"
       method="auto"
       mode="F"
       chamfer_steps="1"
       flexible="false"
       use_knot_distance="true"
       apply_no_radius="true"
       apply_with_radius="true"
       only_selected="false"
       hide_knots="false" />
    <inkscape:path-effect
       effect="fillet_chamfer"
       id="path-effect15-8-0-9-0-4-0-8-5-2"
       is_visible="true"
       lpeversion="1"
       nodesatellites_param="F,0,0,1,0,10,0,1 @ F,0,0,1,0,10,0,1 @ F,0,0,1,0,10,0,1 @ F,0,0,1,0,10,0,1 @ F,0,0,1,0,10,0,1"
       radius="10"
       unit="px"
       method="auto"
       mode="F"
       chamfer_steps="1"
       flexible="false"
       use_knot_distance="true"
       apply_no_radius="true"
       apply_with_radius="true"
       only_selected="false"
       hide_knots="false" />
    <inkscape:path-effect
       effect="fillet_chamfer"
       id="path-effect15-0-1-4-2-1-8-4-6"
       is_visible="true"
       lpeversion="1"
       nodesatellites_param="F,0,0,1,0,10,0,1 @ F,0,0,1,0,10,0,1 @ F,0,0,1,0,10,0,1 @ F,0,0,1,0,10,0,1 @ F,0,0,1,0,10,0,1"
       radius="10"
       unit="px"
       method="auto"
       mode="F"
       chamfer_steps="1"
       flexible="false"
       use_knot_distance="true"
       apply_no_radius="true"
       apply_with_radius="true"
       only_selected="false"
       hide_knots="false" />
    <inkscape:path-effect
       effect="fillet_chamfer"
       id="path-effect15-8-9-0-8-9-8-9-3-1"
       is_visible="true"
       lpeversion="1"
       nodesatellites_param="F,0,0,1,0,10,0,1 @ F,0,0,1,0,10,0,1 @ F,0,0,1,0,10,0,1 @ F,0,0,1,0,10,0,1 @ F,0,0,1,0,10,0,1"
       radius="10"
       unit="px"
       method="auto"
       mode="F"
       chamfer_steps="1"
       flexible="false"
       use_knot_distance="true"
       apply_no_radius="true"
       apply_with_radius="true"
       only_selected="false"
       hide_knots="false" />
    <inkscape:path-effect
       effect="fillet_chamfer"
       id="path-effect15-8-0-9-0-4-0-8-5-3-8"
       is_visible="true"
       lpeversion="1"
       nodesatellites_param="F,0,0,1,0,10,0,1 @ F,0,0,1,0,10,0,1 @ F,0,0,1,0,10,0,1 @ F,0,0,1,0,10,0,1 @ F,0,0,1,0,10,0,1"
       radius="10"
       unit="px"
       method="auto"
       mode="F"
       chamfer_steps="1"
       flexible="false"
       use_knot_distance="true"
       apply_no_radius="true"
       apply_with_radius="true"
       only_selected="false"
       hide_knots="false" />
    <inkscape:path-effect
       effect="fillet_chamfer"
       id="path-effect15-0-1-4-2-7-5"
       is_visible="true"
       lpeversion="1"
       nodesatellites_param="F,0,0,1,0,10,0,1 @ F,0,0,1,0,10,0,1 @ F,0,0,1,0,10,0,1 @ F,0,0,1,0,10,0,1 @ F,0,0,1,0,10,0,1"
       radius="10"
       unit="px"
       method="auto"
       mode="F"
       chamfer_steps="1"
       flexible="false"
       use_knot_distance="true"
       apply_no_radius="true"
       apply_with_radius="true"
       only_selected="false"
       hide_knots="false" />
    <inkscape:path-effect
       effect="fillet_chamfer"
       id="path-effect15-8-9-0-8-9-5-2"
       is_visible="true"
       lpeversion="1"
       nodesatellites_param="F,0,0,1,0,10,0,1 @ F,0,0,1,0,10,0,1 @ F,0,0,1,0,10,0,1 @ F,0,0,1,0,10,0,1 @ F,0,0,1,0,10,0,1"
       radius="10"
       unit="px"
       method="auto"
       mode="F"
       chamfer_steps="1"
       flexible="false"
       use_knot_distance="true"
       apply_no_radius="true"
       apply_with_radius="true"
       only_selected="false"
       hide_knots="false" />
    <inkscape:path-effect
       effect="fillet_chamfer"
       id="path-effect15-8-0-9-0-4-0-3-1"
       is_visible="true"
       lpeversion="1"
       nodesatellites_param="F,0,0,1,0,10,0,1 @ F,0,0,1,0,10,0,1 @ F,0,0,1,0,10,0,1 @ F,0,0,1,0,10,0,1 @ F,0,0,1,0,10,0,1"
       radius="10"
       unit="px"
       method="auto"
       mode="F"
       chamfer_steps="1"
       flexible="false"
       use_knot_distance="true"
       apply_no_radius="true"
       apply_with_radius="true"
       only_selected="false"
       hide_knots="false" />
    <inkscape:path-effect
       effect="fillet_chamfer"
       id="path-effect15-0-1-4-2-1-5-5"
       is_visible="true"
       lpeversion="1"
       nodesatellites_param="F,0,0,1,0,10,0,1 @ F,0,0,1,0,10,0,1 @ F,0,0,1,0,10,0,1 @ F,0,0,1,0,10,0,1 @ F,0,0,1,0,10,0,1"
       radius="10"
       unit="px"
       method="auto"
       mode="F"
       chamfer_steps="1"
       flexible="false"
       use_knot_distance="true"
       apply_no_radius="true"
       apply_with_radius="true"
       only_selected="false"
       hide_knots="false" />
    <inkscape:path-effect
       effect="fillet_chamfer"
       id="path-effect15-8-9-0-8-9-8-6-9"
       is_visible="true"
       lpeversion="1"
       nodesatellites_param="F,0,0,1,0,10,0,1 @ F,0,0,1,0,10,0,1 @ F,0,0,1,0,10,0,1 @ F,0,0,1,0,10,0,1 @ F,0,0,1,0,10,0,1"
       radius="10"
       unit="px"
       method="auto"
       mode="F"
       chamfer_steps="1"
       flexible="false"
       use_knot_distance="true"
       apply_no_radius="true"
       apply_with_radius="true"
       only_selected="false"
       hide_knots="false" />
    <inkscape:path-effect
       effect="fillet_chamfer"
       id="path-effect15-8-0-9-0-4-0-8-2-9"
       is_visible="true"
       lpeversion="1"
       nodesatellites_param="F,0,0,1,0,10,0,1 @ F,0,0,1,0,10,0,1 @ F,0,0,1,0,10,0,1 @ F,0,0,1,0,10,0,1 @ F,0,0,1,0,10,0,1"
       radius="10"
       unit="px"
       method="auto"
       mode="F"
       chamfer_steps="1"
       flexible="false"
       use_knot_distance="true"
       apply_no_radius="true"
       apply_with_radius="true"
       only_selected="false"
       hide_knots="false" />
    <inkscape:path-effect
       effect="fillet_chamfer"
       id="path-effect15-0-1-4-2-2-91-1"
       is_visible="true"
       lpeversion="1"
       nodesatellites_param="F,0,0,1,0,10,0,1 @ F,0,0,1,0,10,0,1 @ F,0,0,1,0,10,0,1 @ F,0,0,1,0,10,0,1 @ F,0,0,1,0,10,0,1"
       radius="10"
       unit="px"
       method="auto"
       mode="F"
       chamfer_steps="1"
       flexible="false"
       use_knot_distance="true"
       apply_no_radius="true"
       apply_with_radius="true"
       only_selected="false"
       hide_knots="false" />
    <inkscape:path-effect
       effect="fillet_chamfer"
       id="path-effect15-8-9-0-8-9-1-27-6"
       is_visible="true"
       lpeversion="1"
       nodesatellites_param="F,0,0,1,0,10,0,1 @ F,0,0,1,0,10,0,1 @ F,0,0,1,0,10,0,1 @ F,0,0,1,0,10,0,1 @ F,0,0,1,0,10,0,1"
       radius="10"
       unit="px"
       method="auto"
       mode="F"
       chamfer_steps="1"
       flexible="false"
       use_knot_distance="true"
       apply_no_radius="true"
       apply_with_radius="true"
       only_selected="false"
       hide_knots="false" />
    <inkscape:path-effect
       effect="fillet_chamfer"
       id="path-effect15-8-0-9-0-4-0-7-0-2"
       is_visible="true"
       lpeversion="1"
       nodesatellites_param="F,0,0,1,0,10,0,1 @ F,0,0,1,0,10,0,1 @ F,0,0,1,0,10,0,1 @ F,0,0,1,0,10,0,1 @ F,0,0,1,0,10,0,1"
       radius="10"
       unit="px"
       method="auto"
       mode="F"
       chamfer_steps="1"
       flexible="false"
       use_knot_distance="true"
       apply_no_radius="true"
       apply_with_radius="true"
       only_selected="false"
       hide_knots="false" />
    <inkscape:path-effect
       effect="fillet_chamfer"
       id="path-effect15-0-1-4-2-2-9-9-1"
       is_visible="true"
       lpeversion="1"
       nodesatellites_param="F,0,0,1,0,10,0,1 @ F,0,0,1,0,10,0,1 @ F,0,0,1,0,10,0,1 @ F,0,0,1,0,10,0,1 @ F,0,0,1,0,10,0,1"
       radius="10"
       unit="px"
       method="auto"
       mode="F"
       chamfer_steps="1"
       flexible="false"
       use_knot_distance="true"
       apply_no_radius="true"
       apply_with_radius="true"
       only_selected="false"
       hide_knots="false" />
    <inkscape:path-effect
       effect="fillet_chamfer"
       id="path-effect15-8-9-0-8-9-1-2-3-0"
       is_visible="true"
       lpeversion="1"
       nodesatellites_param="F,0,0,1,0,10,0,1 @ F,0,0,1,0,10,0,1 @ F,0,0,1,0,10,0,1 @ F,0,0,1,0,10,0,1 @ F,0,0,1,0,10,0,1"
       radius="10"
       unit="px"
       method="auto"
       mode="F"
       chamfer_steps="1"
       flexible="false"
       use_knot_distance="true"
       apply_no_radius="true"
       apply_with_radius="true"
       only_selected="false"
       hide_knots="false" />
    <inkscape:path-effect
       effect="fillet_chamfer"
       id="path-effect15-8-0-9-0-4-0-7-3-6-5"
       is_visible="true"
       lpeversion="1"
       nodesatellites_param="F,0,0,1,0,10,0,1 @ F,0,0,1,0,10,0,1 @ F,0,0,1,0,10,0,1 @ F,0,0,1,0,10,0,1 @ F,0,0,1,0,10,0,1"
       radius="10"
       unit="px"
       method="auto"
       mode="F"
       chamfer_steps="1"
       flexible="false"
       use_knot_distance="true"
       apply_no_radius="true"
       apply_with_radius="true"
       only_selected="false"
       hide_knots="false" />
    <inkscape:path-effect
       effect="fillet_chamfer"
       id="path-effect15-0-1-4-2-1-8-0-3"
       is_visible="true"
       lpeversion="1"
       nodesatellites_param="F,0,0,1,0,10,0,1 @ F,0,0,1,0,10,0,1 @ F,0,0,1,0,10,0,1 @ F,0,0,1,0,10,0,1 @ F,0,0,1,0,10,0,1"
       radius="10"
       unit="px"
       method="auto"
       mode="F"
       chamfer_steps="1"
       flexible="false"
       use_knot_distance="true"
       apply_no_radius="true"
       apply_with_radius="true"
       only_selected="false"
       hide_knots="false" />
    <inkscape:path-effect
       effect="fillet_chamfer"
       id="path-effect15-8-9-0-8-9-8-9-6-2"
       is_visible="true"
       lpeversion="1"
       nodesatellites_param="F,0,0,1,0,10,0,1 @ F,0,0,1,0,10,0,1 @ F,0,0,1,0,10,0,1 @ F,0,0,1,0,10,0,1 @ F,0,0,1,0,10,0,1"
       radius="10"
       unit="px"
       method="auto"
       mode="F"
       chamfer_steps="1"
       flexible="false"
       use_knot_distance="true"
       apply_no_radius="true"
       apply_with_radius="true"
       only_selected="false"
       hide_knots="false" />
    <inkscape:path-effect
       effect="fillet_chamfer"
       id="path-effect15-8-0-9-0-4-0-8-5-2-1"
       is_visible="true"
       lpeversion="1"
       nodesatellites_param="F,0,0,1,0,10,0,1 @ F,0,0,1,0,10,0,1 @ F,0,0,1,0,10,0,1 @ F,0,0,1,0,10,0,1 @ F,0,0,1,0,10,0,1"
       radius="10"
       unit="px"
       method="auto"
       mode="F"
       chamfer_steps="1"
       flexible="false"
       use_knot_distance="true"
       apply_no_radius="true"
       apply_with_radius="true"
       only_selected="false"
       hide_knots="false" />
    <inkscape:path-effect
       effect="fillet_chamfer"
       id="path-effect15-0-1-4-2-1-8-4-6-9"
       is_visible="true"
       lpeversion="1"
       nodesatellites_param="F,0,0,1,0,10,0,1 @ F,0,0,1,0,10,0,1 @ F,0,0,1,0,10,0,1 @ F,0,0,1,0,10,0,1 @ F,0,0,1,0,10,0,1"
       radius="10"
       unit="px"
       method="auto"
       mode="F"
       chamfer_steps="1"
       flexible="false"
       use_knot_distance="true"
       apply_no_radius="true"
       apply_with_radius="true"
       only_selected="false"
       hide_knots="false" />
    <inkscape:path-effect
       effect="fillet_chamfer"
       id="path-effect15-8-9-0-8-9-8-9-3-1-7"
       is_visible="true"
       lpeversion="1"
       nodesatellites_param="F,0,0,1,0,10,0,1 @ F,0,0,1,0,10,0,1 @ F,0,0,1,0,10,0,1 @ F,0,0,1,0,10,0,1 @ F,0,0,1,0,10,0,1"
       radius="10"
       unit="px"
       method="auto"
       mode="F"
       chamfer_steps="1"
       flexible="false"
       use_knot_distance="true"
       apply_no_radius="true"
       apply_with_radius="true"
       only_selected="false"
       hide_knots="false" />
    <inkscape:path-effect
       effect="fillet_chamfer"
       id="path-effect15-8-0-9-0-4-0-8-5-3-8-6"
       is_visible="true"
       lpeversion="1"
       nodesatellites_param="F,0,0,1,0,10,0,1 @ F,0,0,1,0,10,0,1 @ F,0,0,1,0,10,0,1 @ F,0,0,1,0,10,0,1 @ F,0,0,1,0,10,0,1"
       radius="10"
       unit="px"
       method="auto"
       mode="F"
       chamfer_steps="1"
       flexible="false"
       use_knot_distance="true"
       apply_no_radius="true"
       apply_with_radius="true"
       only_selected="false"
       hide_knots="false" />
  </defs>
  <g
     inkscape:groupmode="layer"
     id="layer2"
     inkscape:label="Layer 2" />
  <g
     inkscape:label="Layer 1"
     inkscape:groupmode="layer"
     id="layer1">
    <g
       id="g11-7-0-0-9-0-20"
       transform="matrix(0,0.59667125,0.59667125,0,393.2673,161.87008)"
       style="stroke-width:0.443432">
      <path
         id="path3-9-3-3-8-7-0-1-0-3-2"
         style="fill:#ffcc00;fill-opacity:1;fill-rule:nonzero;stroke:none;stroke-width:5.87637;stroke-dasharray:none;stroke-opacity:1"
         d="m 72.187145,-608.63455 c -8.389369,38.44406 -27.282093,70.83442 -54.178521,94.61352 -4.137019,3.65754 -5.449842,10.26951 -2.688548,15.05251 14.675938,25.42107 29.351877,50.84214 44.027816,76.26321 2.761293,4.783 8.673559,6.0982 13.068673,2.75435 28.548345,-21.71988 52.510725,-48.95763 72.013875,-81.76553 2.82204,-4.74718 3.00458,-12.6906 0.7284,-17.72185 -7.11103,-15.71813 -21.09098,-50.13052 -25.68624,-89.06116 -0.64735,-5.48427 -5.43095,-9.95351 -10.9538,-9.95353 l -24.440675,-6e-5 c -5.522847,-2e-5 -10.713598,4.42321 -11.89098,9.81854 z"
         sodipodi:nodetypes="cccccc"
         inkscape:path-effect="#path-effect15-0-1-4-2-7"
         inkscape:original-d="m 74.078125,-618.45312 c -7.774336,46.41632 -30.384772,84.74701 -63.757813,110.82421 18.009115,31.19467 36.01823,62.38933 54.027344,93.58399 34.682815,-24.414 62.967514,-56.49983 85.062144,-96.34328 0.0831,-0.29537 -26.69773,-50.69376 -30.891,-108.0648 z" />
      <path
         id="path3-9-3-3-8-7-3-1-7-3-6-3"
         style="fill:#f18700;fill-opacity:1;fill-rule:nonzero;stroke:none;stroke-width:5.87637;stroke-dasharray:none;stroke-opacity:1"
         d="m 72.187145,-608.63455 c -8.389369,38.44406 -27.282093,70.83442 -54.178521,94.61352 -4.137019,3.65754 -5.449842,10.26951 -2.688548,15.05251 14.675938,25.42107 29.351877,50.84214 44.027816,76.26321 2.761293,4.783 8.673559,6.0982 13.068673,2.75435 28.548345,-21.71988 52.510725,-48.95763 72.013875,-81.76553 2.82204,-4.74718 3.00458,-12.6906 0.7284,-17.72185 -7.11103,-15.71813 -21.09098,-50.13052 -25.68624,-89.06116 -0.64735,-5.48427 -5.43095,-9.95351 -10.9538,-9.95353 l -24.440675,-6e-5 c -5.522847,-2e-5 -10.713598,4.42321 -11.89098,9.81854 z"
         sodipodi:nodetypes="cccccc"
         inkscape:path-effect="#path-effect15-8-9-0-8-9-5"
         inkscape:original-d="m 74.078125,-618.45312 c -7.774336,46.41632 -30.384772,84.74701 -63.757813,110.82421 18.009115,31.19467 36.01823,62.38933 54.027344,93.58399 34.682815,-24.414 62.967514,-56.49983 85.062144,-96.34328 0.0831,-0.29537 -26.69773,-50.69376 -30.891,-108.0648 z"
         transform="rotate(120,158.4647,-495.98275)" />
      <path
         id="path3-9-3-3-8-7-3-5-2-9-3-2-7"
         style="fill:#ce1625;fill-opacity:1;fill-rule:nonzero;stroke:none;stroke-width:5.87637;stroke-dasharray:none;stroke-opacity:1"
         d="m 72.187145,-608.63455 c -8.389369,38.44406 -27.282093,70.83442 -54.178521,94.61352 -4.137019,3.65754 -5.449842,10.26951 -2.688548,15.05251 14.675938,25.42107 29.351877,50.84214 44.027816,76.26321 2.761293,4.783 8.673559,6.0982 13.068673,2.75435 28.548345,-21.71988 52.510725,-48.95763 72.013875,-81.76553 2.82204,-4.74718 3.00458,-12.6906 0.7284,-17.72185 -7.11103,-15.71813 -21.09098,-50.13052 -25.68624,-89.06116 -0.64735,-5.48427 -5.43095,-9.95351 -10.9538,-9.95353 l -24.440675,-6e-5 c -5.522847,-2e-5 -10.713598,4.42321 -11.89098,9.81854 z"
         sodipodi:nodetypes="cccccc"
         inkscape:path-effect="#path-effect15-8-0-9-0-4-0-3"
         inkscape:original-d="m 74.078125,-618.45312 c -7.774336,46.41632 -30.384772,84.74701 -63.757813,110.82421 18.009115,31.19467 36.01823,62.38933 54.027344,93.58399 34.682815,-24.414 62.967514,-56.49983 85.062144,-96.34328 0.0831,-0.29537 -26.69773,-50.69376 -30.891,-108.0648 z"
         transform="rotate(-120,158.45415,-495.99122)" />
    </g>
    <g
       id="g11-7-0-0-9-0-0-5"
       transform="matrix(0.51673246,-0.29833562,0.29833562,0.51673246,241.95468,423.93573)"
       style="stroke-width:0.443432">
      <path
         id="path3-9-3-3-8-7-0-1-0-3-1-9"
         style="fill:#008b92;fill-opacity:1;fill-rule:nonzero;stroke:none;stroke-width:5.87637;stroke-dasharray:none;stroke-opacity:1"
         d="m 72.187145,-608.63455 c -8.389369,38.44406 -27.282093,70.83442 -54.178521,94.61352 -4.137019,3.65754 -5.449842,10.26951 -2.688548,15.05251 14.675938,25.42107 29.351877,50.84214 44.027816,76.26321 2.761293,4.783 8.673559,6.0982 13.068673,2.75435 28.548345,-21.71988 52.510725,-48.95763 72.013875,-81.76553 2.82204,-4.74718 3.00458,-12.6906 0.7284,-17.72185 -7.11103,-15.71813 -21.09098,-50.13052 -25.68624,-89.06116 -0.64735,-5.48427 -5.43095,-9.95351 -10.9538,-9.95353 l -24.440675,-6e-5 c -5.522847,-2e-5 -10.713598,4.42321 -11.89098,9.81854 z"
         sodipodi:nodetypes="cccccc"
         inkscape:path-effect="#path-effect15-0-1-4-2-1-5"
         inkscape:original-d="m 74.078125,-618.45312 c -7.774336,46.41632 -30.384772,84.74701 -63.757813,110.82421 18.009115,31.19467 36.01823,62.38933 54.027344,93.58399 34.682815,-24.414 62.967514,-56.49983 85.062144,-96.34328 0.0831,-0.29537 -26.69773,-50.69376 -30.891,-108.0648 z" />
      <path
         id="path3-9-3-3-8-7-3-1-7-3-6-9-2"
         style="fill:#0075bf;fill-opacity:1;fill-rule:nonzero;stroke:none;stroke-width:5.87637;stroke-dasharray:none;stroke-opacity:1"
         d="m 72.187145,-608.63455 c -8.389369,38.44406 -27.282093,70.83442 -54.178521,94.61352 -4.137019,3.65754 -5.449842,10.26951 -2.688548,15.05251 14.675938,25.42107 29.351877,50.84214 44.027816,76.26321 2.761293,4.783 8.673559,6.0982 13.068673,2.75435 28.548345,-21.71988 52.510725,-48.95763 72.013875,-81.76553 2.82204,-4.74718 3.00458,-12.6906 0.7284,-17.72185 -7.11103,-15.71813 -21.09098,-50.13052 -25.68624,-89.06116 -0.64735,-5.48427 -5.43095,-9.95351 -10.9538,-9.95353 l -24.440675,-6e-5 c -5.522847,-2e-5 -10.713598,4.42321 -11.89098,9.81854 z"
         sodipodi:nodetypes="cccccc"
         inkscape:path-effect="#path-effect15-8-9-0-8-9-8-6"
         inkscape:original-d="m 74.078125,-618.45312 c -7.774336,46.41632 -30.384772,84.74701 -63.757813,110.82421 18.009115,31.19467 36.01823,62.38933 54.027344,93.58399 34.682815,-24.414 62.967514,-56.49983 85.062144,-96.34328 0.0831,-0.29537 -26.69773,-50.69376 -30.891,-108.0648 z"
         transform="rotate(120,158.4647,-495.98275)" />
      <path
         id="path3-9-3-3-8-7-3-5-2-9-3-2-6-2"
         style="fill:#29235c;fill-opacity:1;fill-rule:nonzero;stroke:none;stroke-width:5.87637;stroke-dasharray:none;stroke-opacity:1"
         d="m 72.187145,-608.63455 c -8.389369,38.44406 -27.282093,70.83442 -54.178521,94.61352 -4.137019,3.65754 -5.449842,10.26951 -2.688548,15.05251 14.675938,25.42107 29.351877,50.84214 44.027816,76.26321 2.761293,4.783 8.673559,6.0982 13.068673,2.75435 28.548345,-21.71988 52.510725,-48.95763 72.013875,-81.76553 2.82204,-4.74718 3.00458,-12.6906 0.7284,-17.72185 -7.11103,-15.71813 -21.09098,-50.13052 -25.68624,-89.06116 -0.64735,-5.48427 -5.43095,-9.95351 -10.9538,-9.95353 l -24.440675,-6e-5 c -5.522847,-2e-5 -10.713598,4.42321 -11.89098,9.81854 z"
         sodipodi:nodetypes="cccccc"
         inkscape:path-effect="#path-effect15-8-0-9-0-4-0-8-2"
         inkscape:original-d="m 74.078125,-618.45312 c -7.774336,46.41632 -30.384772,84.74701 -63.757813,110.82421 18.009115,31.19467 36.01823,62.38933 54.027344,93.58399 34.682815,-24.414 62.967514,-56.49983 85.062144,-96.34328 0.0831,-0.29537 -26.69773,-50.69376 -30.891,-108.0648 z"
         transform="rotate(-120,158.45415,-495.99122)" />
    </g>
    <g
       id="g11-7-0-0-9-0-2-89"
       transform="matrix(0,0.59667125,0.59667125,0,630.13284,25.684221)"
       style="stroke-width:0.443432">
      <path
         id="path3-9-3-3-8-7-0-1-0-3-16-7"
         style="fill:#ffcc00;fill-opacity:1;fill-rule:nonzero;stroke:none;stroke-width:5.87637;stroke-dasharray:none;stroke-opacity:1"
         d="m 72.187145,-608.63455 c -8.389369,38.44406 -27.282093,70.83442 -54.178521,94.61352 -4.137019,3.65754 -5.449842,10.26951 -2.688548,15.05251 14.675938,25.42107 29.351877,50.84214 44.027816,76.26321 2.761293,4.783 8.673559,6.0982 13.068673,2.75435 28.548345,-21.71988 52.510725,-48.95763 72.013875,-81.76553 2.82204,-4.74718 3.00458,-12.6906 0.7284,-17.72185 -7.11103,-15.71813 -21.09098,-50.13052 -25.68624,-89.06116 -0.64735,-5.48427 -5.43095,-9.95351 -10.9538,-9.95353 l -24.440675,-6e-5 c -5.522847,-2e-5 -10.713598,4.42321 -11.89098,9.81854 z"
         sodipodi:nodetypes="cccccc"
         inkscape:path-effect="#path-effect15-0-1-4-2-2-91"
         inkscape:original-d="m 74.078125,-618.45312 c -7.774336,46.41632 -30.384772,84.74701 -63.757813,110.82421 18.009115,31.19467 36.01823,62.38933 54.027344,93.58399 34.682815,-24.414 62.967514,-56.49983 85.062144,-96.34328 0.0831,-0.29537 -26.69773,-50.69376 -30.891,-108.0648 z" />
      <path
         id="path3-9-3-3-8-7-3-1-7-3-6-2-36"
         style="fill:#f18700;fill-opacity:1;fill-rule:nonzero;stroke:none;stroke-width:5.87637;stroke-dasharray:none;stroke-opacity:1"
         d="m 72.187145,-608.63455 c -8.389369,38.44406 -27.282093,70.83442 -54.178521,94.61352 -4.137019,3.65754 -5.449842,10.26951 -2.688548,15.05251 14.675938,25.42107 29.351877,50.84214 44.027816,76.26321 2.761293,4.783 8.673559,6.0982 13.068673,2.75435 28.548345,-21.71988 52.510725,-48.95763 72.013875,-81.76553 2.82204,-4.74718 3.00458,-12.6906 0.7284,-17.72185 -7.11103,-15.71813 -21.09098,-50.13052 -25.68624,-89.06116 -0.64735,-5.48427 -5.43095,-9.95351 -10.9538,-9.95353 l -24.440675,-6e-5 c -5.522847,-2e-5 -10.713598,4.42321 -11.89098,9.81854 z"
         sodipodi:nodetypes="cccccc"
         inkscape:path-effect="#path-effect15-8-9-0-8-9-1-27"
         inkscape:original-d="m 74.078125,-618.45312 c -7.774336,46.41632 -30.384772,84.74701 -63.757813,110.82421 18.009115,31.19467 36.01823,62.38933 54.027344,93.58399 34.682815,-24.414 62.967514,-56.49983 85.062144,-96.34328 0.0831,-0.29537 -26.69773,-50.69376 -30.891,-108.0648 z"
         transform="rotate(120,158.4647,-495.98275)" />
      <path
         id="path3-9-3-3-8-7-3-5-2-9-3-2-1-1"
         style="fill:#ce1625;fill-opacity:1;fill-rule:nonzero;stroke:none;stroke-width:5.87637;stroke-dasharray:none;stroke-opacity:1"
         d="m 72.187145,-608.63455 c -8.389369,38.44406 -27.282093,70.83442 -54.178521,94.61352 -4.137019,3.65754 -5.449842,10.26951 -2.688548,15.05251 14.675938,25.42107 29.351877,50.84214 44.027816,76.26321 2.761293,4.783 8.673559,6.0982 13.068673,2.75435 28.548345,-21.71988 52.510725,-48.95763 72.013875,-81.76553 2.82204,-4.74718 3.00458,-12.6906 0.7284,-17.72185 -7.11103,-15.71813 -21.09098,-50.13052 -25.68624,-89.06116 -0.64735,-5.48427 -5.43095,-9.95351 -10.9538,-9.95353 l -24.440675,-6e-5 c -5.522847,-2e-5 -10.713598,4.42321 -11.89098,9.81854 z"
         sodipodi:nodetypes="cccccc"
         inkscape:path-effect="#path-effect15-8-0-9-0-4-0-7-0"
         inkscape:original-d="m 74.078125,-618.45312 c -7.774336,46.41632 -30.384772,84.74701 -63.757813,110.82421 18.009115,31.19467 36.01823,62.38933 54.027344,93.58399 34.682815,-24.414 62.967514,-56.49983 85.062144,-96.34328 0.0831,-0.29537 -26.69773,-50.69376 -30.891,-108.0648 z"
         transform="rotate(-120,158.45415,-495.99122)" />
    </g>
    <g
       id="g11-7-0-0-9-0-2-8-2"
       transform="matrix(0,0.59667125,0.59667125,0,630.43565,300.31284)"
       style="stroke-width:0.443432">
      <path
         id="path3-9-3-3-8-7-0-1-0-3-16-6-9"
         style="fill:#ffcc00;fill-opacity:1;fill-rule:nonzero;stroke:none;stroke-width:5.87637;stroke-dasharray:none;stroke-opacity:1"
         d="m 72.187145,-608.63455 c -8.389369,38.44406 -27.282093,70.83442 -54.178521,94.61352 -4.137019,3.65754 -5.449842,10.26951 -2.688548,15.05251 14.675938,25.42107 29.351877,50.84214 44.027816,76.26321 2.761293,4.783 8.673559,6.0982 13.068673,2.75435 28.548345,-21.71988 52.510725,-48.95763 72.013875,-81.76553 2.82204,-4.74718 3.00458,-12.6906 0.7284,-17.72185 -7.11103,-15.71813 -21.09098,-50.13052 -25.68624,-89.06116 -0.64735,-5.48427 -5.43095,-9.95351 -10.9538,-9.95353 l -24.440675,-6e-5 c -5.522847,-2e-5 -10.713598,4.42321 -11.89098,9.81854 z"
         sodipodi:nodetypes="cccccc"
         inkscape:path-effect="#path-effect15-0-1-4-2-2-9-9"
         inkscape:original-d="m 74.078125,-618.45312 c -7.774336,46.41632 -30.384772,84.74701 -63.757813,110.82421 18.009115,31.19467 36.01823,62.38933 54.027344,93.58399 34.682815,-24.414 62.967514,-56.49983 85.062144,-96.34328 0.0831,-0.29537 -26.69773,-50.69376 -30.891,-108.0648 z" />
      <path
         id="path3-9-3-3-8-7-3-1-7-3-6-2-3-3"
         style="fill:#f18700;fill-opacity:1;fill-rule:nonzero;stroke:none;stroke-width:5.87637;stroke-dasharray:none;stroke-opacity:1"
         d="m 72.187145,-608.63455 c -8.389369,38.44406 -27.282093,70.83442 -54.178521,94.61352 -4.137019,3.65754 -5.449842,10.26951 -2.688548,15.05251 14.675938,25.42107 29.351877,50.84214 44.027816,76.26321 2.761293,4.783 8.673559,6.0982 13.068673,2.75435 28.548345,-21.71988 52.510725,-48.95763 72.013875,-81.76553 2.82204,-4.74718 3.00458,-12.6906 0.7284,-17.72185 -7.11103,-15.71813 -21.09098,-50.13052 -25.68624,-89.06116 -0.64735,-5.48427 -5.43095,-9.95351 -10.9538,-9.95353 l -24.440675,-6e-5 c -5.522847,-2e-5 -10.713598,4.42321 -11.89098,9.81854 z"
         sodipodi:nodetypes="cccccc"
         inkscape:path-effect="#path-effect15-8-9-0-8-9-1-2-3"
         inkscape:original-d="m 74.078125,-618.45312 c -7.774336,46.41632 -30.384772,84.74701 -63.757813,110.82421 18.009115,31.19467 36.01823,62.38933 54.027344,93.58399 34.682815,-24.414 62.967514,-56.49983 85.062144,-96.34328 0.0831,-0.29537 -26.69773,-50.69376 -30.891,-108.0648 z"
         transform="rotate(120,158.4647,-495.98275)" />
      <path
         id="path3-9-3-3-8-7-3-5-2-9-3-2-1-8-1"
         style="fill:#ce1625;fill-opacity:1;fill-rule:nonzero;stroke:none;stroke-width:5.87637;stroke-dasharray:none;stroke-opacity:1"
         d="m 72.187145,-608.63455 c -8.389369,38.44406 -27.282093,70.83442 -54.178521,94.61352 -4.137019,3.65754 -5.449842,10.26951 -2.688548,15.05251 14.675938,25.42107 29.351877,50.84214 44.027816,76.26321 2.761293,4.783 8.673559,6.0982 13.068673,2.75435 28.548345,-21.71988 52.510725,-48.95763 72.013875,-81.76553 2.82204,-4.74718 3.00458,-12.6906 0.7284,-17.72185 -7.11103,-15.71813 -21.09098,-50.13052 -25.68624,-89.06116 -0.64735,-5.48427 -5.43095,-9.95351 -10.9538,-9.95353 l -24.440675,-6e-5 c -5.522847,-2e-5 -10.713598,4.42321 -11.89098,9.81854 z"
         sodipodi:nodetypes="cccccc"
         inkscape:path-effect="#path-effect15-8-0-9-0-4-0-7-3-6"
         inkscape:original-d="m 74.078125,-618.45312 c -7.774336,46.41632 -30.384772,84.74701 -63.757813,110.82421 18.009115,31.19467 36.01823,62.38933 54.027344,93.58399 34.682815,-24.414 62.967514,-56.49983 85.062144,-96.34328 0.0831,-0.29537 -26.69773,-50.69376 -30.891,-108.0648 z"
         transform="rotate(-120,158.45414,-495.99122)" />
    </g>
    <g
       id="g11-7-0-0-9-0-0-0-94"
       transform="matrix(0.51673246,-0.29833562,0.29833562,0.51673246,478.82011,560.2897)"
       style="stroke-width:0.443432">
      <path
         id="path3-9-3-3-8-7-0-1-0-3-1-1-78"
         style="fill:#008b92;fill-opacity:1;fill-rule:nonzero;stroke:none;stroke-width:5.87637;stroke-dasharray:none;stroke-opacity:1"
         d="m 72.187145,-608.63455 c -8.389369,38.44406 -27.282093,70.83442 -54.178521,94.61352 -4.137019,3.65754 -5.449842,10.26951 -2.688548,15.05251 14.675938,25.42107 29.351877,50.84214 44.027816,76.26321 2.761293,4.783 8.673559,6.0982 13.068673,2.75435 28.548345,-21.71988 52.510725,-48.95763 72.013875,-81.76553 2.82204,-4.74718 3.00458,-12.6906 0.7284,-17.72185 -7.11103,-15.71813 -21.09098,-50.13052 -25.68624,-89.06116 -0.64735,-5.48427 -5.43095,-9.95351 -10.9538,-9.95353 l -24.440675,-6e-5 c -5.522847,-2e-5 -10.713598,4.42321 -11.89098,9.81854 z"
         sodipodi:nodetypes="cccccc"
         inkscape:path-effect="#path-effect15-0-1-4-2-1-8-0"
         inkscape:original-d="m 74.078125,-618.45312 c -7.774336,46.41632 -30.384772,84.74701 -63.757813,110.82421 18.009115,31.19467 36.01823,62.38933 54.027344,93.58399 34.682815,-24.414 62.967514,-56.49983 85.062144,-96.34328 0.0831,-0.29537 -26.69773,-50.69376 -30.891,-108.0648 z" />
      <path
         id="path3-9-3-3-8-7-3-1-7-3-6-9-9-4"
         style="fill:#0075bf;fill-opacity:1;fill-rule:nonzero;stroke:none;stroke-width:5.87637;stroke-dasharray:none;stroke-opacity:1"
         d="m 72.187145,-608.63455 c -8.389369,38.44406 -27.282093,70.83442 -54.178521,94.61352 -4.137019,3.65754 -5.449842,10.26951 -2.688548,15.05251 14.675938,25.42107 29.351877,50.84214 44.027816,76.26321 2.761293,4.783 8.673559,6.0982 13.068673,2.75435 28.548345,-21.71988 52.510725,-48.95763 72.013875,-81.76553 2.82204,-4.74718 3.00458,-12.6906 0.7284,-17.72185 -7.11103,-15.71813 -21.09098,-50.13052 -25.68624,-89.06116 -0.64735,-5.48427 -5.43095,-9.95351 -10.9538,-9.95353 l -24.440675,-6e-5 c -5.522847,-2e-5 -10.713598,4.42321 -11.89098,9.81854 z"
         sodipodi:nodetypes="cccccc"
         inkscape:path-effect="#path-effect15-8-9-0-8-9-8-9-6"
         inkscape:original-d="m 74.078125,-618.45312 c -7.774336,46.41632 -30.384772,84.74701 -63.757813,110.82421 18.009115,31.19467 36.01823,62.38933 54.027344,93.58399 34.682815,-24.414 62.967514,-56.49983 85.062144,-96.34328 0.0831,-0.29537 -26.69773,-50.69376 -30.891,-108.0648 z"
         transform="rotate(120,158.4647,-495.98275)" />
      <path
         id="path3-9-3-3-8-7-3-5-2-9-3-2-6-7-5"
         style="fill:#29235c;fill-opacity:1;fill-rule:nonzero;stroke:none;stroke-width:5.87637;stroke-dasharray:none;stroke-opacity:1"
         d="m 72.187145,-608.63455 c -8.389369,38.44406 -27.282093,70.83442 -54.178521,94.61352 -4.137019,3.65754 -5.449842,10.26951 -2.688548,15.05251 14.675938,25.42107 29.351877,50.84214 44.027816,76.26321 2.761293,4.783 8.673559,6.0982 13.068673,2.75435 28.548345,-21.71988 52.510725,-48.95763 72.013875,-81.76553 2.82204,-4.74718 3.00458,-12.6906 0.7284,-17.72185 -7.11103,-15.71813 -21.09098,-50.13052 -25.68624,-89.06116 -0.64735,-5.48427 -5.43095,-9.95351 -10.9538,-9.95353 l -24.440675,-6e-5 c -5.522847,-2e-5 -10.713598,4.42321 -11.89098,9.81854 z"
         sodipodi:nodetypes="cccccc"
         inkscape:path-effect="#path-effect15-8-0-9-0-4-0-8-5-2"
         inkscape:original-d="m 74.078125,-618.45312 c -7.774336,46.41632 -30.384772,84.74701 -63.757813,110.82421 18.009115,31.19467 36.01823,62.38933 54.027344,93.58399 34.682815,-24.414 62.967514,-56.49983 85.062144,-96.34328 0.0831,-0.29537 -26.69773,-50.69376 -30.891,-108.0648 z"
         transform="rotate(-120,158.45415,-495.99122)" />
    </g>
    <g
       id="g11-7-0-0-9-0-0-0-9-0"
       transform="matrix(0.51673246,-0.29833562,0.29833562,0.51673246,241.95467,698.73251)"
       style="stroke-width:0.443432">
      <path
         id="path3-9-3-3-8-7-0-1-0-3-1-1-5-3"
         style="fill:#008b92;fill-opacity:1;fill-rule:nonzero;stroke:none;stroke-width:5.87637;stroke-dasharray:none;stroke-opacity:1"
         d="m 72.187145,-608.63455 c -8.389369,38.44406 -27.282093,70.83442 -54.178521,94.61352 -4.137019,3.65754 -5.449842,10.26951 -2.688548,15.05251 14.675938,25.42107 29.351877,50.84214 44.027816,76.26321 2.761293,4.783 8.673559,6.0982 13.068673,2.75435 28.548345,-21.71988 52.510725,-48.95763 72.013875,-81.76553 2.82204,-4.74718 3.00458,-12.6906 0.7284,-17.72185 -7.11103,-15.71813 -21.09098,-50.13052 -25.68624,-89.06116 -0.64735,-5.48427 -5.43095,-9.95351 -10.9538,-9.95353 l -24.440675,-6e-5 c -5.522847,-2e-5 -10.713598,4.42321 -11.89098,9.81854 z"
         sodipodi:nodetypes="cccccc"
         inkscape:path-effect="#path-effect15-0-1-4-2-1-8-4-6"
         inkscape:original-d="m 74.078125,-618.45312 c -7.774336,46.41632 -30.384772,84.74701 -63.757813,110.82421 18.009115,31.19467 36.01823,62.38933 54.027344,93.58399 34.682815,-24.414 62.967514,-56.49983 85.062144,-96.34328 0.0831,-0.29537 -26.69773,-50.69376 -30.891,-108.0648 z" />
      <path
         id="path3-9-3-3-8-7-3-1-7-3-6-9-9-1-6"
         style="fill:#0075bf;fill-opacity:1;fill-rule:nonzero;stroke:none;stroke-width:5.87637;stroke-dasharray:none;stroke-opacity:1"
         d="m 72.187145,-608.63455 c -8.389369,38.44406 -27.282093,70.83442 -54.178521,94.61352 -4.137019,3.65754 -5.449842,10.26951 -2.688548,15.05251 14.675938,25.42107 29.351877,50.84214 44.027816,76.26321 2.761293,4.783 8.673559,6.0982 13.068673,2.75435 28.548345,-21.71988 52.510725,-48.95763 72.013875,-81.76553 2.82204,-4.74718 3.00458,-12.6906 0.7284,-17.72185 -7.11103,-15.71813 -21.09098,-50.13052 -25.68624,-89.06116 -0.64735,-5.48427 -5.43095,-9.95351 -10.9538,-9.95353 l -24.440675,-6e-5 c -5.522847,-2e-5 -10.713598,4.42321 -11.89098,9.81854 z"
         sodipodi:nodetypes="cccccc"
         inkscape:path-effect="#path-effect15-8-9-0-8-9-8-9-3-1"
         inkscape:original-d="m 74.078125,-618.45312 c -7.774336,46.41632 -30.384772,84.74701 -63.757813,110.82421 18.009115,31.19467 36.01823,62.38933 54.027344,93.58399 34.682815,-24.414 62.967514,-56.49983 85.062144,-96.34328 0.0831,-0.29537 -26.69773,-50.69376 -30.891,-108.0648 z"
         transform="rotate(120,158.4647,-495.98275)" />
      <path
         id="path3-9-3-3-8-7-3-5-2-9-3-2-6-7-2-10"
         style="fill:#29235c;fill-opacity:1;fill-rule:nonzero;stroke:none;stroke-width:5.87637;stroke-dasharray:none;stroke-opacity:1"
         d="m 72.187145,-608.63455 c -8.389369,38.44406 -27.282093,70.83442 -54.178521,94.61352 -4.137019,3.65754 -5.449842,10.26951 -2.688548,15.05251 14.675938,25.42107 29.351877,50.84214 44.027816,76.26321 2.761293,4.783 8.673559,6.0982 13.068673,2.75435 28.548345,-21.71988 52.510725,-48.95763 72.013875,-81.76553 2.82204,-4.74718 3.00458,-12.6906 0.7284,-17.72185 -7.11103,-15.71813 -21.09098,-50.13052 -25.68624,-89.06116 -0.64735,-5.48427 -5.43095,-9.95351 -10.9538,-9.95353 l -24.440675,-6e-5 c -5.522847,-2e-5 -10.713598,4.42321 -11.89098,9.81854 z"
         sodipodi:nodetypes="cccccc"
         inkscape:path-effect="#path-effect15-8-0-9-0-4-0-8-5-3-8"
         inkscape:original-d="m 74.078125,-618.45312 c -7.774336,46.41632 -30.384772,84.74701 -63.757813,110.82421 18.009115,31.19467 36.01823,62.38933 54.027344,93.58399 34.682815,-24.414 62.967514,-56.49983 85.062144,-96.34328 0.0831,-0.29537 -26.69773,-50.69376 -30.891,-108.0648 z"
         transform="rotate(-120,158.45415,-495.99122)" />
    </g>
  </g>
</svg>
